PathFileType	4	(X/Y/Z)	S1_nor_slow_left.trc
DataRate	CameraRate	NumFrames	NumMarkers	Units	OrigDataRate	OrigDataStartFrame	OrigNumFrames
250.00	250.00	8	18	mm	250.00	6162	12323
Frame#	Time	c7	r_should	l_should	clavicle	r_upa	r_elb_l	r_elb_m	r_low	r_wri_l	r_wri_m	r_met	l_upa	l_elb_l	l_elb_m	l_low	l_wri_l	l_wri_m	l_met
	X1	Y1	Z1	X2	Y2	Z2	X3	Y3	Z3	X4	Y4	Z4	X5	Y5	Z5	X6	Y6	Z6	X7	Y7	Z7	X8	Y8	Z8	X9	Y9	Z9	X10	Y10	Z10	X11	Y11	Z11	X12	Y12	Z12	X13	Y13	Z13	X14	Y14	Z14	X15	Y15	Z15	X16	Y16	Z16	X17	Y17	Z17	X18	Y18	Z18
6162	24.64400	872.42651	1421.52502	57.12504	933.45154	1361.61609	247.21033	924.64221	1337.64172	-128.32968	1000.41046	1290.43030	57.42301	902.81244	1169.22168	327.63745	914.44159	1071.29004	346.57550	840.81934	1045.52087	282.05334	893.62695	940.39282	367.32877	988.86572	872.12463	333.79721	923.94275	843.14856	351.73425	1039.14526	798.12323	350.59097	903.49646	1112.10474	-143.50789	904.67065	1036.92725	-151.02805	880.56055	1009.20819	-56.52839	948.13629	899.17908	-121.23710	1048.95679	870.65643	-145.88707	1023.10443	837.39374	-87.71793	1081.51013	807.59967	-167.52505
6163	24.64800	872.52252	1421.52356	57.02121	933.49493	1361.65186	247.13625	924.80499	1337.61243	-128.40852	1000.51068	1290.43518	57.36514	902.78339	1169.19495	327.60715	914.40784	1071.35425	346.56372	840.79407	1045.58667	282.02521	893.54071	940.47302	367.34805	988.76636	872.16620	333.87350	923.82434	843.21924	351.80304	1039.02087	798.15259	350.70752	903.74866	1112.05798	-143.61687	904.91510	1036.76038	-151.18883	880.73157	1009.10065	-56.62040	947.82812	898.72192	-121.34167	1048.54016	869.75751	-145.94304	1022.47797	836.56085	-87.75944	1080.81323	806.39758	-167.49496
6164	24.65200	872.62048	1421.53296	56.92172	933.54681	1361.69019	247.06606	924.96521	1337.58765	-128.48180	1000.61414	1290.44006	57.31110	902.75897	1169.14429	327.57587	914.38239	1071.41870	346.54361	840.77216	1045.64600	281.99072	893.44678	940.54938	367.36618	988.66125	872.20190	333.95123	923.70264	843.28711	351.87180	1038.88635	798.16876	350.81735	903.98853	1112.01514	-143.72221	905.15240	1036.60583	-151.35231	880.88177	1009.00195	-56.71090	947.52014	898.26239	-121.44099	1048.11145	868.85535	-146.01424	1021.83698	835.73853	-87.80730	1080.07861	805.22266	-167.40518
6165	24.65600	872.71619	1421.54211	56.81862	933.60522	1361.72729	246.99742	925.12030	1337.55945	-128.55212	1000.71680	1290.43945	57.25744	902.77960	1169.24609	327.53290	914.35254	1071.48340	346.52982	840.75397	1045.70544	281.96585	893.35034	940.62433	367.39139	988.55811	872.22961	334.03043	923.57422	843.35028	351.94373	1038.74329	798.17804	350.93997	904.22803	1111.96716	-143.81772	905.39600	1036.46008	-151.51263	881.01416	1008.91638	-56.80604	947.21344	897.82184	-121.54022	1047.67017	867.96057	-146.09961	1021.19574	834.90814	-87.82615	1079.35815	804.05298	-167.37111
6166	24.66000	872.81683	1421.55005	56.71542	933.66803	1361.75488	246.92538	925.26636	1337.53259	-128.62773	1000.81506	1290.44226	57.20041	902.73480	1169.13696	327.48169	914.32245	1071.54175	346.52673	840.74121	1045.76208	281.94418	893.25787	940.70032	367.41934	988.45367	872.25464	334.11316	923.43677	843.40814	352.02393	1038.59509	798.18414	351.07510	904.46545	1111.92126	-143.91579	905.65503	1036.31567	-151.66415	881.21429	1008.82245	-56.90870	946.89642	897.38934	-121.63686	1047.21765	867.04968	-146.14131	1020.55872	834.10809	-87.86033	1078.67676	802.89587	-167.34877
6167	24.66400	872.91577	1421.54919	56.60940	933.73639	1361.77917	246.84575	925.40729	1337.50647	-128.69597	1000.91388	1290.44104	57.13875	902.72766	1169.15857	327.43417	914.29510	1071.59241	346.51685	840.72443	1045.82129	281.93045	893.16028	940.77307	367.44934	988.35352	872.26831	334.18832	923.30670	843.46198	352.10422	1038.45068	798.18597	351.20953	904.70056	1111.87341	-144.01489	905.92188	1036.17297	-151.79921	881.38800	1008.71503	-57.01597	946.58514	896.95905	-121.74250	1046.76721	866.13446	-146.16943	1019.94037	833.30298	-87.86884	1077.97107	801.73157	-167.27707
6168	24.66800	873.01843	1421.55029	56.51242	933.81116	1361.80640	246.76323	925.54761	1337.47241	-128.76402	1001.01184	1290.43396	57.07457	902.73596	1169.21594	327.38495	914.27484	1071.64282	346.50610	840.70319	1045.87915	281.90732	893.06146	940.84216	367.48029	988.25702	872.28333	334.26743	923.18750	843.50519	352.18173	1038.30151	798.18665	351.35370	904.92737	1111.82214	-144.11707	906.18866	1036.02527	-151.93999	881.57855	1008.60358	-57.12582	946.28619	896.51508	-121.82928	1046.32874	865.23267	-146.20573	1019.30359	832.48071	-87.88113	1077.29846	800.52789	-167.18033
6169	24.67200	873.12268	1421.54932	56.40960	933.89154	1361.83362	246.67085	925.68457	1337.44153	-128.84265	1001.11353	1290.42297	57.00710	902.75183	1169.28052	327.34601	914.26221	1071.69690	346.50278	840.69427	1045.94312	281.88312	892.96674	940.91382	367.51297	988.15918	872.29297	334.34619	923.06915	843.54022	352.25851	1038.15491	798.17145	351.49567	905.15356	1111.77087	-144.21530	906.44635	1035.87036	-152.09912	881.74719	1008.49786	-57.23864	946.00177	896.07227	-121.89321	1045.89514	864.33936	-146.25244	1018.65814	831.68060	-87.91328	1076.67920	799.38800	-167.19037
